HIERARCHY
ROOT Hips
{
	OFFSET 0.00000 0.00000 0.00000
	CHANNELS 6 Xposition Yposition Zposition Zrotation Yrotation Xrotation 
	JOINT LHipJoint
	{
		OFFSET 0 0 0
		CHANNELS 3 Zrotation Yrotation Xrotation
		JOINT LeftUpLeg
		{
			OFFSET 1.34019 -1.87553 0.90315
			CHANNELS 3 Zrotation Yrotation Xrotation
			JOINT LeftLeg
			{
				OFFSET 2.55316 -7.01474 0.00000
				CHANNELS 3 Zrotation Yrotation Xrotation
				JOINT LeftFoot
				{
					OFFSET 2.64657 -7.27139 0.00000
					CHANNELS 3 Zrotation Yrotation Xrotation
					JOINT LeftToeBase
					{
						OFFSET 0.24207 -0.66507 2.14489
						CHANNELS 3 Zrotation Yrotation Xrotation
						End Site
						{
							OFFSET 0.00000 -0.00000 1.12451
						}
					}
				}
			}
		}
	}
	JOINT RHipJoint
	{
		OFFSET 0 0 0
		CHANNELS 3 Zrotation Yrotation Xrotation
		JOINT RightUpLeg
		{
			OFFSET -1.28320 -1.87553 0.90315
			CHANNELS 3 Zrotation Yrotation Xrotation
			JOINT RightLeg
			{
				OFFSET -2.60484 -7.15674 0.00000
				CHANNELS 3 Zrotation Yrotation Xrotation
				JOINT RightFoot
				{
					OFFSET -2.60296 -7.15159 0.00000
					CHANNELS 3 Zrotation Yrotation Xrotation
					JOINT RightToeBase
					{
						OFFSET -0.31082 -0.85398 2.28998
						CHANNELS 3 Zrotation Yrotation Xrotation
						End Site
						{
							OFFSET -0.00000 -0.00000 1.21611
						}
					}
				}
			}
		}
	}
	JOINT LowerBack
	{
		OFFSET 0 0 0
		CHANNELS 3 Zrotation Yrotation Xrotation
		JOINT Spine
		{
			OFFSET -0.00160 2.05581 -0.15156
			CHANNELS 3 Zrotation Yrotation Xrotation
			JOINT Spine1
			{
				OFFSET 0.04594 2.06326 -0.01617
				CHANNELS 3 Zrotation Yrotation Xrotation
				JOINT Neck
				{
					OFFSET 0 0 0
					CHANNELS 3 Zrotation Yrotation Xrotation
					JOINT Neck1
					{
						OFFSET 0.03753 1.73883 0.26751
						CHANNELS 3 Zrotation Yrotation Xrotation
						JOINT Head
						{
							OFFSET -0.09795 1.76129 -0.31794
							CHANNELS 3 Zrotation Yrotation Xrotation
							End Site
							{
								OFFSET -0.03611 1.79987 -0.13846
							}
						}
					}
				}
				JOINT LeftShoulder
				{
					OFFSET 0 0 0
					CHANNELS 3 Zrotation Yrotation Xrotation
					JOINT LeftArm
					{
						OFFSET 3.30667 1.29205 -0.22445
						CHANNELS 3 Zrotation Yrotation Xrotation
						JOINT LeftForeArm
						{
							OFFSET 4.92785 -0.00000 -0.00000
							CHANNELS 3 Zrotation Yrotation Xrotation
							JOINT LeftHand
							{
								OFFSET 3.44052 -0.00000 0.00000
								CHANNELS 3 Zrotation Yrotation Xrotation
								JOINT LeftFingerBase
								{
									OFFSET 0 0 0
									CHANNELS 3 Zrotation Yrotation Xrotation
									JOINT LeftHandIndex1
									{
										OFFSET 0.65433 -0.00000 0.00000
										CHANNELS 3 Zrotation Yrotation Xrotation
										End Site
										{
											OFFSET 0.52753 -0.00000 0.00000
										}
									}
								}
								JOINT LThumb
								{
									OFFSET 0 0 0
									CHANNELS 3 Zrotation Yrotation Xrotation
									End Site
									{
										OFFSET 0.53559 -0.00000 0.53559
									}
								}
							}
						}
					}
				}
				JOINT RightShoulder
				{
					OFFSET 0 0 0
					CHANNELS 3 Zrotation Yrotation Xrotation
					JOINT RightArm
					{
						OFFSET -3.20032 1.49783 -0.27688
						CHANNELS 3 Zrotation Yrotation Xrotation
						JOINT RightForeArm
						{
							OFFSET -5.09181 -0.00000 -0.00000
							CHANNELS 3 Zrotation Yrotation Xrotation
							JOINT RightHand
							{
								OFFSET -3.49865 -0.00000 -0.00000
								CHANNELS 3 Zrotation Yrotation Xrotation
								JOINT RightFingerBase
								{
									OFFSET 0 0 0
									CHANNELS 3 Zrotation Yrotation Xrotation
									JOINT RightHandIndex1
									{
										OFFSET -0.66641 -0.00000 0.00000
										CHANNELS 3 Zrotation Yrotation Xrotation
										End Site
										{
											OFFSET -0.53728 -0.00000 0.00000
										}
									}
								}
								JOINT RThumb
								{
									OFFSET 0 0 0
									CHANNELS 3 Zrotation Yrotation Xrotation
									End Site
									{
										OFFSET -0.54548 -0.00000 0.54548
									}
								}
							}
						}
					}
				}
			}
		}
	}
}
MOTION
Frames: 16
Frame Time: .0083333
1.6330 18.0883 -18.7090 -1.0068 0.1574 2.5228 0.0000 0.0000 0.0000 -21.8540 -7.4270 -11.5660 2.2510 9.3704 26.9609 -0.4599 14.6839 -14.5927 0.1128 -2.1651 -5.9621 0.0000 0.0000 0.0000 13.1032 -2.0938 -17.6131 -8.7136 -16.6198 55.0943 0.7049 -16.8081 -15.0456 -0.0307 1.1311 -3.1095 -2.1971 -0.0981 9.3012 3.9588 -0.1907 1.5681 5.4040 -0.0500 -3.5652 7.7356 2.2173 -15.3635 -11.4299 3.6572 19.0952 -4.7737 1.1011 8.8539 0.0000 0.0000 0.0000 -34.1638 6.0532 -23.4105 17.0072 -26.8673 -4.0906 -0.0000 0.0000 -0.1860 13.9677 4.7260 1.1740 -7.1250 0.0000 -0.0000 -10.4774 34.6961 2.6879 0.0000 0.0000 0.0000 27.6245 -11.3434 -29.1631 -19.2664 29.7484 -5.1624 0.0000 -0.0000 -7.3258 -21.5461 -2.9848 1.1778 7.1250 -0.0000 -0.0000 4.1181 -33.1684 1.1967
1.6362 18.0767 -18.6731 -0.8702 0.1488 2.5380 0.0000 0.0000 0.0000 -22.0586 -7.6203 -11.3004 2.2430 9.3549 26.9121 -0.4468 14.7946 -15.0657 0.0968 -2.0063 -5.5232 0.0000 0.0000 0.0000 13.0039 -1.8762 -18.1846 -8.6750 -16.5940 54.9592 0.6491 -16.7116 -15.8198 -0.0341 1.1917 -3.2763 -2.4306 -0.0851 9.3521 3.8545 -0.2006 1.5398 5.4297 -0.0509 -3.6213 7.6963 2.1999 -15.3694 -11.2476 3.6129 19.2307 -4.7120 1.0943 8.8918 -0.0000 0.0000 0.0000 -34.0937 5.9028 -23.5166 16.9767 -26.8271 -4.0768 -0.0000 0.0000 -0.1651 13.9838 4.7192 1.1737 -7.1250 0.0000 -0.0000 -10.4634 34.6899 2.6858 -0.0000 0.0000 0.0000 27.6731 -11.3263 -29.0203 -19.3086 29.8004 -5.1833 0.0000 -0.0000 -7.3701 -21.5456 -2.9917 1.1805 7.1250 -0.0000 -0.0000 4.1190 -33.1759 1.1962
1.6382 18.0638 -18.6375 -0.7039 0.1449 2.5580 0.0000 0.0000 0.0000 -22.2923 -7.7728 -11.0453 2.2338 9.3371 26.8555 -0.4272 14.8668 -15.5524 0.0828 -1.8562 -5.1084 0.0000 0.0000 0.0000 12.8769 -1.6498 -18.7709 -8.6439 -16.5730 54.8503 0.5935 -16.6310 -16.5621 -0.0371 1.2426 -3.4166 -2.6961 -0.0739 9.4085 3.7358 -0.2169 1.5076 5.4595 -0.0543 -3.6837 7.6627 2.1835 -15.3515 -11.0571 3.5640 19.3209 -4.6475 1.0879 8.9094 0.0000 0.0000 0.0000 -33.9913 5.7525 -23.6475 16.9428 -26.7823 -4.0615 -0.0000 0.0000 -0.1342 14.0012 4.6997 1.1704 -7.1250 0.0000 -0.0000 -10.4463 34.6709 2.6862 0.0000 0.0000 0.0000 27.7490 -11.2959 -28.8940 -19.3496 29.8508 -5.2037 0.0000 -0.0000 -7.4106 -21.5544 -2.9984 1.1837 7.1250 -0.0000 -0.0000 4.1123 -33.1833 1.1936
1.6389 18.0497 -18.6024 -0.5153 0.1559 2.5838 0.0000 0.0000 0.0000 -22.5433 -7.8788 -10.8138 2.2259 9.3216 26.8065 -0.3974 14.8903 -16.0840 0.0710 -1.7193 -4.7306 0.0000 0.0000 0.0000 12.7311 -1.4268 -19.3749 -8.6211 -16.5576 54.7701 0.5374 -16.5594 -17.2762 -0.0401 1.2929 -3.5550 -2.9897 -0.0712 9.4583 3.6112 -0.2483 1.4786 5.5009 -0.0649 -3.7372 7.6356 2.1736 -15.3055 -10.8695 3.5198 19.3512 -4.5826 1.0852 8.9024 -0.0000 -0.0000 0.0000 -33.8753 5.6204 -23.7848 16.9161 -26.7470 -4.0495 -0.0000 0.0000 -0.1158 14.0202 4.6826 1.1678 -7.1250 0.0000 -0.0000 -10.4284 34.6545 2.6857 -0.0000 -0.0000 0.0000 27.8423 -11.2532 -28.7487 -19.4017 29.9147 -5.2297 0.0000 -0.0000 -7.4925 -21.5730 -3.0111 1.1898 7.1250 -0.0000 -0.0000 4.0981 -33.1975 1.1880
1.6382 18.0347 -18.5677 -0.3019 0.1770 2.6144 0.0000 0.0000 0.0000 -22.8114 -7.9262 -10.6051 2.2178 9.3057 26.7564 -0.3577 14.8654 -16.6498 0.0628 -1.6168 -4.4478 0.0000 0.0000 0.0000 12.5628 -1.2034 -19.9935 -8.6035 -16.5457 54.7086 0.4835 -16.5007 -17.9373 -0.0417 1.3185 -3.6255 -3.3131 -0.0707 9.5088 3.4767 -0.2868 1.4539 5.5497 -0.0788 -3.7854 7.5924 2.1598 -15.2585 -10.6629 3.4677 19.3526 -4.5085 1.0799 8.8839 -0.0000 0.0000 0.0000 -33.7405 5.5034 -23.8927 16.9050 -26.7324 -4.0445 -0.0000 0.0000 -0.1420 14.0447 4.6664 1.1659 -7.1250 0.0000 -0.0000 -10.4060 34.6391 2.6837 -0.0000 0.0000 0.0000 27.9648 -11.1971 -28.6533 -19.4514 29.9758 -5.2545 0.0000 -0.0000 -7.5243 -21.5640 -2.9871 1.1798 7.1250 -0.0000 -0.0000 4.1038 -33.1715 1.1923
1.6361 18.0169 -18.5333 -0.0727 0.2047 2.6429 0.0000 0.0000 0.0000 -23.0862 -7.9178 -10.4193 2.2109 9.2922 26.7137 -0.3083 14.8010 -17.2543 0.0583 -1.5574 -4.2840 0.0000 0.0000 0.0000 12.3801 -0.9812 -20.6243 -8.5911 -16.5372 54.6648 0.4339 -16.4541 -18.5259 -0.0415 1.3156 -3.6176 -3.6576 -0.0730 9.5599 3.3380 -0.3319 1.4379 5.6071 -0.0960 -3.8237 7.5389 2.1469 -15.2425 -10.4421 3.4153 19.3637 -4.4282 1.0742 8.8744 0.0000 -0.0000 0.0000 -33.6015 5.3886 -24.0011 16.9017 -26.7280 -4.0430 -0.0000 0.0000 -0.1484 14.0805 4.6723 1.1704 -7.1250 0.0000 -0.0000 -10.3777 34.6467 2.6743 0.0000 -0.0000 0.0000 28.1128 -11.1374 -28.5541 -19.5176 30.0567 -5.2876 0.0000 -0.0000 -7.6158 -21.5835 -2.9847 1.1800 7.1250 -0.0000 -0.0000 4.0877 -33.1695 1.1878
1.6332 18.0009 -18.4989 0.1709 0.2396 2.6761 0.0000 0.0000 0.0000 -23.3653 -7.8619 -10.2561 2.2040 9.2787 26.6709 -0.2522 14.7067 -17.8677 0.0581 -1.5548 -4.2767 0.0000 0.0000 0.0000 12.1834 -0.7743 -21.2643 -8.5770 -16.5277 54.6155 0.3868 -16.3933 -19.0302 -0.0407 1.3025 -3.5816 -4.0171 -0.0768 9.6029 3.1955 -0.3812 1.4297 5.6691 -0.1156 -3.8485 7.4908 2.1349 -15.2687 -10.2181 3.3624 19.4147 -4.3491 1.0676 8.8863 -0.0000 -0.0000 0.0000 -33.4670 5.2904 -24.0498 16.9217 -26.7544 -4.0520 -0.0000 0.0000 -0.1910 14.1559 4.7376 1.1934 -7.1250 0.0000 -0.0000 -10.3257 34.7162 2.6428 -0.0000 -0.0000 0.0000 28.2840 -11.0820 -28.4793 -19.5906 30.1459 -5.3242 0.0000 -0.0000 -7.6796 -21.5809 -2.9537 1.1676 7.1250 -0.0000 -0.0000 4.0878 -33.1362 1.1911
1.6293 17.9850 -18.4643 0.4266 0.2780 2.7057 0.0000 0.0000 0.0000 -23.6462 -7.7714 -10.1096 2.1980 9.2669 26.6338 -0.1891 14.5797 -18.4868 0.0620 -1.6068 -4.4201 0.0000 0.0000 0.0000 11.9752 -0.5751 -21.9026 -8.5610 -16.5167 54.5590 0.3397 -16.3036 -19.4631 -0.0392 1.2783 -3.5148 -4.3945 -0.0803 9.6446 3.0520 -0.4323 1.4284 5.7406 -0.1361 -3.8644 7.4917 2.1408 -15.3044 -10.0319 3.3298 19.4619 -4.2892 1.0702 8.9025 0.0000 -0.0000 0.0000 -33.3457 5.1999 -24.0780 16.9542 -26.7974 -4.0667 -0.0000 0.0000 -0.1997 14.2347 4.7958 1.2150 -7.1250 0.0000 -0.0000 -10.2698 34.7788 2.6122 0.0000 -0.0000 0.0000 28.4710 -11.0451 -28.3860 -19.6779 30.2523 -5.3681 0.0000 -0.0000 -7.7715 -21.5800 -2.9150 1.1523 7.1250 -0.0000 -0.0000 4.0859 -33.0947 1.1947
1.6247 17.9693 -18.4295 0.7046 0.3301 2.7259 0.0000 0.0000 0.0000 -23.9432 -7.6520 -9.9645 2.1908 9.2527 26.5891 -0.1210 14.4167 -19.0803 0.0702 -1.7093 -4.7030 0.0000 0.0000 0.0000 11.7427 -0.4010 -22.5339 -8.5392 -16.5019 54.4825 0.2949 -16.1868 -19.8089 -0.0384 1.2648 -3.4776 -4.7879 -0.0837 9.6913 2.9012 -0.4860 1.4363 5.8137 -0.1581 -3.8728 7.4660 2.1367 -15.3559 -9.8291 3.2858 19.5203 -4.2207 1.0669 8.9236 0.0000 -0.0000 0.0000 -33.2359 5.0972 -24.0937 16.9937 -26.8494 -4.0845 -0.0000 0.0000 -0.1670 14.3151 4.8164 1.2274 -7.1250 0.0000 -0.0000 -10.2070 34.8034 2.5897 0.0000 -0.0000 0.0000 28.6772 -11.0416 -28.2827 -19.7784 30.3744 -5.4188 0.0000 -0.0000 -7.8534 -21.5815 -2.8862 1.1410 7.1250 -0.0000 -0.0000 4.0828 -33.0639 1.1968
1.6195 17.9537 -18.3942 0.9950 0.3819 2.7365 0.0000 0.0000 0.0000 -24.2456 -7.5110 -9.8249 2.1842 9.2397 26.5480 -0.0487 14.2236 -19.6518 0.0817 -1.8442 -5.0752 0.0000 0.0000 0.0000 11.4972 -0.2328 -23.1515 -8.5117 -16.4830 54.3855 0.2492 -16.0290 -20.0892 -0.0387 1.2703 -3.4928 -5.1942 -0.0869 9.7449 2.7506 -0.5414 1.4545 5.8946 -0.1813 -3.8735 7.4261 2.1331 -15.4046 -9.6288 3.2458 19.5654 -4.1498 1.0643 8.9401 -0.0000 0.0000 0.0000 -33.1522 5.0036 -24.0863 17.0470 -26.9197 -4.1086 -0.0000 0.0000 -0.1436 14.4095 4.8291 1.2391 -7.1250 0.0000 -0.0000 -10.1319 34.8206 2.5658 -0.0000 0.0000 0.0000 28.8905 -11.0412 -28.1877 -19.8823 30.5003 -5.4715 0.0000 -0.0000 -7.9015 -21.5806 -2.8450 1.1247 7.1250 -0.0000 -0.0000 4.0808 -33.0197 1.2006
1.6135 17.9388 -18.3586 1.2913 0.4450 2.7391 0.0000 0.0000 0.0000 -24.5470 -7.3552 -9.6875 2.1779 9.2272 26.5086 0.0246 14.0038 -20.1743 0.0953 -1.9914 -5.4819 0.0000 0.0000 0.0000 11.2474 -0.0727 -23.7561 -8.4771 -16.4592 54.2634 0.2057 -15.8411 -20.2908 -0.0403 1.2960 -3.5637 -5.6011 -0.0905 9.8064 2.5974 -0.5983 1.4841 5.9731 -0.2059 -3.8657 7.3865 2.1311 -15.4370 -9.4354 3.2070 19.5633 -4.0800 1.0624 8.9378 -0.0000 -0.0000 0.0000 -33.0854 4.8962 -24.0859 17.1040 -26.9947 -4.1344 -0.0000 0.0000 -0.0989 14.4875 4.7795 1.2333 -7.1250 0.0000 -0.0000 -10.0610 34.7738 2.5590 -0.0000 -0.0000 0.0000 29.1167 -11.0611 -28.0778 -19.9928 30.6336 -5.5277 0.0000 -0.0000 -7.9461 -21.5847 -2.7973 1.1061 7.1250 -0.0000 -0.0000 4.0744 -32.9686 1.2037
1.6072 17.9245 -18.3222 1.5840 0.5136 2.7307 0.0000 0.0000 0.0000 -24.8417 -7.2011 -9.5393 2.1719 9.2154 26.4714 0.0963 13.7784 -20.6526 0.1099 -2.1372 -5.8850 0.0000 0.0000 0.0000 11.0014 0.0847 -24.3383 -8.4341 -16.4294 54.1116 0.1608 -15.6102 -20.4415 -0.0425 1.3311 -3.6603 -5.9947 -0.0938 9.8767 2.4450 -0.6540 1.5286 6.0446 -0.2310 -3.8470 7.3448 2.1345 -15.5077 -9.2528 3.1770 19.5675 -4.0128 1.0625 8.9459 -0.0000 0.0000 0.0000 -33.0374 4.7735 -24.0838 17.1604 -27.0687 -4.1601 -0.0000 0.0000 -0.0485 14.5617 4.7100 1.2219 -7.1250 0.0000 -0.0000 -9.9905 34.7065 2.5572 -0.0000 0.0000 0.0000 29.3570 -11.0909 -27.9588 -20.1145 30.7801 -5.5898 0.0000 -0.0000 -8.0153 -21.6251 -2.7840 1.1031 7.1250 -0.0000 -0.0000 4.0408 -32.9556 1.1950
1.6007 17.9110 -18.2851 1.8639 0.5943 2.7151 0.0000 0.0000 0.0000 -25.1214 -7.0567 -9.3780 2.1662 9.2040 26.4357 0.1633 13.5574 -21.0747 0.1253 -2.2823 -6.2864 0.0000 0.0000 0.0000 10.7683 0.2376 -24.8964 -8.3817 -16.3929 53.9261 0.1146 -15.3353 -20.5421 -0.0457 1.3794 -3.7934 -6.3622 -0.0993 9.9605 2.2967 -0.7108 1.5769 6.1057 -0.2571 -3.8316 7.3220 2.1450 -15.5702 -9.1068 3.1577 19.5227 -3.9592 1.0657 8.9377 0.0000 -0.0000 0.0000 -33.0103 4.6624 -24.0363 17.2242 -27.1524 -4.1891 -0.0000 0.0000 -0.0421 14.6186 4.6152 1.2023 -7.1250 0.0000 -0.0000 -9.9307 34.6126 2.5644 0.0000 -0.0000 0.0000 29.5951 -11.1400 -27.8200 -20.2365 30.9262 -5.6524 0.0000 -0.0000 -8.0781 -21.6540 -2.7458 1.0896 7.1250 -0.0000 -0.0000 4.0149 -32.9154 1.1912
1.5942 17.8984 -18.2469 2.1157 0.6735 2.6947 0.0000 0.0000 0.0000 -25.3716 -6.9249 -9.2036 2.1605 9.1926 26.3997 0.2232 13.3616 -21.4441 0.1405 -2.4154 -6.6553 0.0000 0.0000 0.0000 10.5642 0.4017 -25.4342 -8.3183 -16.3484 53.7011 0.0695 -15.0384 -20.6026 -0.0495 1.4361 -3.9496 -6.6887 -0.1048 10.0519 2.1558 -0.7639 1.6286 6.1506 -0.2820 -3.8172 7.3412 2.1725 -15.6463 -9.0061 3.1599 19.4623 -3.9256 1.0773 8.9301 0.0000 -0.0000 0.0000 -33.0018 4.5548 -23.9674 17.2826 -27.2289 -4.2158 -0.0000 0.0000 -0.0433 14.6461 4.4992 1.1745 -7.1250 0.0000 -0.0000 -9.8920 34.4958 2.5826 0.0000 -0.0000 0.0000 29.8305 -11.2080 -27.6579 -20.3600 31.0736 -5.7160 0.0000 -0.0000 -8.1373 -21.6778 -2.6970 1.0715 7.1250 -0.0000 -0.0000 3.9925 -32.8636 1.1895
1.5885 17.8868 -18.2076 2.3311 0.7558 2.6762 0.0000 0.0000 0.0000 -25.5854 -6.8088 -9.0205 2.1544 9.1805 26.3617 0.2751 13.1895 -21.7547 0.1551 -2.5376 -6.9939 0.0000 0.0000 0.0000 10.3939 0.5643 -25.9592 -8.2427 -16.2949 53.4323 0.0283 -14.7294 -20.6093 -0.0545 1.5063 -4.1431 -6.9512 -0.1117 10.1584 2.0204 -0.8134 1.6695 6.1649 -0.3049 -3.8236 7.4011 2.2129 -15.7121 -8.9487 3.1789 19.3812 -3.9116 1.0955 8.9164 0.0000 -0.0000 0.0000 -33.0104 4.4785 -23.8028 17.3538 -27.3219 -4.2485 -0.0000 0.0000 -0.1105 14.6555 4.4199 1.1546 -7.1250 0.0000 -0.0000 -9.8734 34.4155 2.5972 0.0000 -0.0000 0.0000 30.0546 -11.2899 -27.5002 -20.4649 31.1984 -5.7702 0.0000 -0.0000 -8.1303 -21.6608 -2.6189 1.0396 7.1250 -0.0000 -0.0000 4.0013 -32.7794 1.2003
1.5834 17.8762 -18.1667 2.5111 0.8367 2.6576 0.0000 0.0000 0.0000 -25.7641 -6.7076 -8.8245 2.1473 9.1663 26.3170 0.3178 13.0397 -21.9968 0.1684 -2.6435 -7.2877 0.0000 0.0000 0.0000 10.2557 0.7293 -26.4649 -8.1542 -16.2315 53.1162 -0.0098 -14.4142 -20.5818 -0.0600 1.5802 -4.3469 -7.1570 -0.1210 10.2779 1.8929 -0.8614 1.6959 6.1552 -0.3262 -3.8535 7.5036 2.2807 -15.7483 -8.9270 3.2349 19.2966 -3.9125 1.1312 8.9008 0.0000 -0.0000 0.0000 -33.0345 4.4286 -23.5899 17.4179 -27.4054 -4.2779 -0.0000 0.0000 -0.1836 14.6434 4.3390 1.1325 -7.1250 0.0000 -0.0000 -9.8722 34.3327 2.6170 0.0000 -0.0000 0.0000 30.2535 -11.4108 -27.2882 -20.5637 31.3155 -5.8215 0.0000 -0.0000 -8.1408 -21.6253 -2.5295 1.0024 7.1250 -0.0000 -0.0000 4.0244 -32.6826 1.2167
